<?xml version="1.0" encoding="UTF-8" standalone="no"?>
<!DOCTYPE svg PUBLIC "-//W3C//DTD SVG 1.0//EN" "http://www.w3.org/TR/2001/PR-SVG-20010719/DTD/svg10.dtd">
<svg width="37cm" height="31cm" viewBox="171 112 724 614" xmlns="http://www.w3.org/2000/svg" xmlns:xlink="http://www.w3.org/1999/xlink">
  <g>
    <rect style="fill: #f1f1ff" x="318.45" y="226.1" width="442" height="498" rx="4" ry="4"/>
    <rect style="fill: none; fill-opacity:0; stroke-width: 2; stroke-linejoin: round; stroke: #000000" x="318.45" y="226.1" width="442" height="498" rx="4" ry="4"/>
  </g>
  <g>
    <ellipse style="fill: #ffffff" cx="220.45" cy="384.1" rx="6" ry="6"/>
    <ellipse style="fill: none; fill-opacity:0; stroke-width: 2; stroke-linejoin: round; stroke: #000000" cx="220.45" cy="384.1" rx="6" ry="6"/>
    <line style="fill: none; fill-opacity:0; stroke-width: 2; stroke-linejoin: round; stroke: #000000" x1="196.45" y1="396.1" x2="244.45" y2="396.1"/>
    <line style="fill: none; fill-opacity:0; stroke-width: 2; stroke-linejoin: round; stroke: #000000" x1="220.45" y1="390.1" x2="220.45" y2="420.1"/>
    <line style="fill: none; fill-opacity:0; stroke-width: 2; stroke-linejoin: round; stroke: #000000" x1="220.45" y1="420.1" x2="196.45" y2="446.1"/>
    <line style="fill: none; fill-opacity:0; stroke-width: 2; stroke-linejoin: round; stroke: #000000" x1="220.45" y1="420.1" x2="244.45" y2="446.1"/>
    <text style="fill: #000000;text-anchor:middle;font-size:12.8;font-family:sanserif;font-style:normal;font-weight:normal" x="220.45" y="470.9">
      <tspan x="220.45" y="470.9">Tecnico Sistemas</tspan>
    </text>
  </g>
  <g>
    <ellipse style="fill: #ffffff" cx="217.45" cy="601.1" rx="6" ry="6"/>
    <ellipse style="fill: none; fill-opacity:0; stroke-width: 2; stroke-linejoin: round; stroke: #000000" cx="217.45" cy="601.1" rx="6" ry="6"/>
    <line style="fill: none; fill-opacity:0; stroke-width: 2; stroke-linejoin: round; stroke: #000000" x1="193.45" y1="613.1" x2="241.45" y2="613.1"/>
    <line style="fill: none; fill-opacity:0; stroke-width: 2; stroke-linejoin: round; stroke: #000000" x1="217.45" y1="607.1" x2="217.45" y2="637.1"/>
    <line style="fill: none; fill-opacity:0; stroke-width: 2; stroke-linejoin: round; stroke: #000000" x1="217.45" y1="637.1" x2="193.45" y2="663.1"/>
    <line style="fill: none; fill-opacity:0; stroke-width: 2; stroke-linejoin: round; stroke: #000000" x1="217.45" y1="637.1" x2="241.45" y2="663.1"/>
    <text style="fill: #000000;text-anchor:middle;font-size:12.8;font-family:sanserif;font-style:normal;font-weight:normal" x="217.45" y="687.9">
      <tspan x="217.45" y="687.9">Tecnico</tspan>
      <tspan x="217.45" y="703.9">Control</tspan>
    </text>
  </g>
  <g>
    <rect style="fill: #ffffff" x="335.45" y="431.1" width="117.05" height="36" rx="20" ry="20"/>
    <rect style="fill: none; fill-opacity:0; stroke-width: 2; stroke-linejoin: round; stroke: #000000" x="335.45" y="431.1" width="117.05" height="36" rx="20" ry="20"/>
    <text style="fill: #000000;text-anchor:middle;font-size:12.8;font-family:sanserif;font-style:normal;font-weight:normal" x="393.975" y="453.9">
      <tspan x="393.975" y="453.9">gestinar potencia</tspan>
    </text>
  </g>
  <g>
    <rect style="fill: #ffffff" x="334.45" y="383.1" width="157.4" height="36" rx="20" ry="20"/>
    <rect style="fill: none; fill-opacity:0; stroke-width: 2; stroke-linejoin: round; stroke: #000000" x="334.45" y="383.1" width="157.4" height="36" rx="20" ry="20"/>
    <text style="fill: #000000;text-anchor:middle;font-size:12.8;font-family:sanserif;font-style:normal;font-weight:normal" x="413.15" y="405.9">
      <tspan x="413.15" y="405.9">gestionar nivel radiacion</tspan>
    </text>
  </g>
  <g>
    <rect style="fill: #ffffff" x="340.45" y="331.1" width="111.25" height="36" rx="20" ry="20"/>
    <rect style="fill: none; fill-opacity:0; stroke-width: 2; stroke-linejoin: round; stroke: #000000" x="340.45" y="331.1" width="111.25" height="36" rx="20" ry="20"/>
    <text style="fill: #000000;text-anchor:middle;font-size:12.8;font-family:sanserif;font-style:normal;font-weight:normal" x="396.075" y="353.9">
      <tspan x="396.075" y="353.9">gestionar placas</tspan>
    </text>
  </g>
  <g>
    <rect style="fill: #ffffff" x="338.25" y="543.1" width="122.65" height="36" rx="20" ry="20"/>
    <rect style="fill: none; fill-opacity:0; stroke-width: 2; stroke-linejoin: round; stroke: #000000" x="338.25" y="543.1" width="122.65" height="36" rx="20" ry="20"/>
    <text style="fill: #000000;text-anchor:middle;font-size:12.8;font-family:sanserif;font-style:normal;font-weight:normal" x="399.575" y="565.9">
      <tspan x="399.575" y="565.9">monitorizar placas</tspan>
    </text>
  </g>
  <g>
    <rect style="fill: #ffffff" x="337.15" y="634.6" width="135.4" height="36" rx="20" ry="20"/>
    <rect style="fill: none; fill-opacity:0; stroke-width: 2; stroke-linejoin: round; stroke: #000000" x="337.15" y="634.6" width="135.4" height="36" rx="20" ry="20"/>
    <text style="fill: #000000;text-anchor:middle;font-size:12.8;font-family:sanserif;font-style:normal;font-weight:normal" x="404.85" y="657.4">
      <tspan x="404.85" y="657.4">monitorizar potencia</tspan>
    </text>
  </g>
  <g>
    <rect style="fill: #ffffff" x="617.05" y="306.1" width="129.7" height="36" rx="20" ry="20"/>
    <rect style="fill: none; fill-opacity:0; stroke-width: 2; stroke-linejoin: round; stroke: #000000" x="617.05" y="306.1" width="129.7" height="36" rx="20" ry="20"/>
    <text style="fill: #000000;text-anchor:middle;font-size:12.8;font-family:sanserif;font-style:normal;font-weight:normal" x="681.9" y="328.9">
      <tspan x="681.9" y="328.9">vender lote energía</tspan>
    </text>
  </g>
  <g>
    <ellipse style="fill: #ffffff" cx="847.45" cy="182.1" rx="6" ry="6"/>
    <ellipse style="fill: none; fill-opacity:0; stroke-width: 2; stroke-linejoin: round; stroke: #000000" cx="847.45" cy="182.1" rx="6" ry="6"/>
    <line style="fill: none; fill-opacity:0; stroke-width: 2; stroke-linejoin: round; stroke: #000000" x1="823.45" y1="194.1" x2="871.45" y2="194.1"/>
    <line style="fill: none; fill-opacity:0; stroke-width: 2; stroke-linejoin: round; stroke: #000000" x1="847.45" y1="188.1" x2="847.45" y2="218.1"/>
    <line style="fill: none; fill-opacity:0; stroke-width: 2; stroke-linejoin: round; stroke: #000000" x1="847.45" y1="218.1" x2="823.45" y2="244.1"/>
    <line style="fill: none; fill-opacity:0; stroke-width: 2; stroke-linejoin: round; stroke: #000000" x1="847.45" y1="218.1" x2="871.45" y2="244.1"/>
    <text style="fill: #000000;text-anchor:middle;font-size:12.8;font-family:sanserif;font-style:normal;font-weight:normal" x="847.45" y="268.9">
      <tspan x="847.45" y="268.9">Empresa Externa</tspan>
      <tspan x="847.45" y="284.9">Suministradora</tspan>
    </text>
  </g>
  <g>
    <rect style="fill: #ffffff" x="630.45" y="668.1" width="112.6" height="36" rx="20" ry="20"/>
    <rect style="fill: none; fill-opacity:0; stroke-width: 2; stroke-linejoin: round; stroke: #000000" x="630.45" y="668.1" width="112.6" height="36" rx="20" ry="20"/>
    <text style="fill: #000000;text-anchor:middle;font-size:12.8;font-family:sanserif;font-style:normal;font-weight:normal" x="686.75" y="690.9">
      <tspan x="686.75" y="690.9">comprar energía</tspan>
    </text>
  </g>
  <g>
    <rect style="fill: #ffffff" x="639.45" y="378.1" width="105.4" height="36" rx="20" ry="20"/>
    <rect style="fill: none; fill-opacity:0; stroke-width: 2; stroke-linejoin: round; stroke: #000000" x="639.45" y="378.1" width="105.4" height="36" rx="20" ry="20"/>
    <text style="fill: #000000;text-anchor:middle;font-size:12.8;font-family:sanserif;font-style:normal;font-weight:normal" x="692.15" y="400.9">
      <tspan x="692.15" y="400.9">control de flujo</tspan>
    </text>
  </g>
  <g>
    <rect style="fill: #ffffff" x="617.45" y="422.1" width="127.1" height="36" rx="20" ry="20"/>
    <rect style="fill: none; fill-opacity:0; stroke-width: 2; stroke-linejoin: round; stroke: #000000" x="617.45" y="422.1" width="127.1" height="36" rx="20" ry="20"/>
    <text style="fill: #000000;text-anchor:middle;font-size:12.8;font-family:sanserif;font-style:normal;font-weight:normal" x="681" y="444.9">
      <tspan x="681" y="444.9">balance de energía</tspan>
    </text>
  </g>
  <g>
    <ellipse style="fill: #ffffff" cx="840.276" cy="479.6" rx="6" ry="6"/>
    <ellipse style="fill: none; fill-opacity:0; stroke-width: 2; stroke-linejoin: round; stroke: #000000" cx="840.276" cy="479.6" rx="6" ry="6"/>
    <line style="fill: none; fill-opacity:0; stroke-width: 2; stroke-linejoin: round; stroke: #000000" x1="816.276" y1="491.6" x2="864.276" y2="491.6"/>
    <line style="fill: none; fill-opacity:0; stroke-width: 2; stroke-linejoin: round; stroke: #000000" x1="840.276" y1="485.6" x2="840.276" y2="515.6"/>
    <line style="fill: none; fill-opacity:0; stroke-width: 2; stroke-linejoin: round; stroke: #000000" x1="840.276" y1="515.6" x2="816.276" y2="541.6"/>
    <line style="fill: none; fill-opacity:0; stroke-width: 2; stroke-linejoin: round; stroke: #000000" x1="840.276" y1="515.6" x2="864.276" y2="541.6"/>
    <text style="fill: #000000;text-anchor:middle;font-size:12.8;font-family:sanserif;font-style:normal;font-weight:normal" x="840.276" y="566.4">
      <tspan x="840.276" y="566.4">Empresa Externa</tspan>
      <tspan x="840.276" y="582.4">Consumidora</tspan>
    </text>
  </g>
  <line style="fill: none; fill-opacity:0; stroke-width: 2; stroke-linejoin: round; stroke: #000000" x1="799.534" y1="268.538" x2="746.75" y2="324.1"/>
  <line style="fill: none; fill-opacity:0; stroke-width: 2; stroke-linejoin: round; stroke: #000000" x1="796.347" y1="384.964" x2="744.85" y2="396.1"/>
  <line style="fill: none; fill-opacity:0; stroke-width: 2; stroke-linejoin: round; stroke: #000000" x1="796.349" y1="406.079" x2="744.55" y2="440.1"/>
  <g>
    <ellipse style="fill: #ffffff" cx="844.276" cy="338.6" rx="6" ry="6"/>
    <ellipse style="fill: none; fill-opacity:0; stroke-width: 2; stroke-linejoin: round; stroke: #000000" cx="844.276" cy="338.6" rx="6" ry="6"/>
    <line style="fill: none; fill-opacity:0; stroke-width: 2; stroke-linejoin: round; stroke: #000000" x1="820.276" y1="350.6" x2="868.276" y2="350.6"/>
    <line style="fill: none; fill-opacity:0; stroke-width: 2; stroke-linejoin: round; stroke: #000000" x1="844.276" y1="344.6" x2="844.276" y2="374.6"/>
    <line style="fill: none; fill-opacity:0; stroke-width: 2; stroke-linejoin: round; stroke: #000000" x1="844.276" y1="374.6" x2="820.276" y2="400.6"/>
    <line style="fill: none; fill-opacity:0; stroke-width: 2; stroke-linejoin: round; stroke: #000000" x1="844.276" y1="374.6" x2="868.276" y2="400.6"/>
    <text style="fill: #000000;text-anchor:middle;font-size:12.8;font-family:sanserif;font-style:normal;font-weight:normal" x="844.276" y="425.4">
      <tspan x="844.276" y="425.4">Empresa Externa</tspan>
    </text>
  </g>
  <g>
    <line style="fill: none; fill-opacity:0; stroke-width: 2; stroke-linejoin: round; stroke: #000000" x1="845.628" y1="307.958" x2="846.042" y2="287.524"/>
    <polygon style="fill: #ffffff" points="840.629,307.857 845.425,317.956 850.627,308.06 "/>
    <polygon style="fill: none; fill-opacity:0; stroke-width: 2; stroke: #000000" points="840.629,307.857 845.425,317.956 850.627,308.06 "/>
  </g>
  <g>
    <line style="fill: none; fill-opacity:0; stroke-width: 2; stroke: #000000" x1="842.369" y1="441.806" x2="841.836" y2="460.625"/>
    <polygon style="fill: #ffffff" points="847.367,441.948 842.653,431.81 837.371,441.664 "/>
    <polygon style="fill: none; fill-opacity:0; stroke-width: 2; stroke: #000000" points="847.367,441.948 842.653,431.81 837.371,441.664 "/>
  </g>
  <g>
    <rect style="fill: #ffffff" x="337.35" y="588.6" width="168.8" height="36" rx="20" ry="20"/>
    <rect style="fill: none; fill-opacity:0; stroke-width: 2; stroke: #000000" x="337.35" y="588.6" width="168.8" height="36" rx="20" ry="20"/>
    <text style="fill: #000000;text-anchor:middle;font-size:12.8;font-family:sanserif;font-style:normal;font-weight:normal" x="421.75" y="611.4">
      <tspan x="421.75" y="611.4">monitorizar nivel radiacion</tspan>
    </text>
  </g>
  <g>
    <line style="fill: none; fill-opacity:0; stroke-width: 2; stroke: #000000" x1="218.38" y1="569.86" x2="219.69" y2="475.105"/>
    <polygon style="fill: #ffffff" points="213.38,569.791 218.241,579.859 223.379,569.929 "/>
    <polygon style="fill: none; fill-opacity:0; stroke-width: 2; stroke: #000000" points="213.38,569.791 218.241,579.859 223.379,569.929 "/>
  </g>
  <g>
    <rect style="fill: #ffffff" x="333.45" y="477.1" width="168.65" height="36" rx="20" ry="20"/>
    <rect style="fill: none; fill-opacity:0; stroke-width: 2; stroke: #000000" x="333.45" y="477.1" width="168.65" height="36" rx="20" ry="20"/>
    <text style="fill: #000000;text-anchor:middle;font-size:12.8;font-family:sanserif;font-style:normal;font-weight:normal" x="417.775" y="499.9">
      <tspan x="417.775" y="499.9">gestionar almacenamiento</tspan>
    </text>
  </g>
  <line style="fill: none; fill-opacity:0; stroke-width: 2; stroke: #000000" x1="269.001" y1="432.343" x2="335.45" y2="449.1"/>
  <line style="fill: none; fill-opacity:0; stroke-width: 2; stroke: #000000" x1="269.003" y1="412.008" x2="334.45" y2="401.1"/>
  <line style="fill: none; fill-opacity:0; stroke-width: 2; stroke: #000000" x1="269.002" y1="391.373" x2="340.45" y2="349.1"/>
  <line style="fill: none; fill-opacity:0; stroke-width: 2; stroke: #000000" x1="268.563" y1="452.034" x2="333.45" y2="495.1"/>
  <line style="fill: none; fill-opacity:0; stroke-width: 2; stroke: #000000" x1="243.43" y1="640.464" x2="337.15" y2="652.6"/>
  <line style="fill: none; fill-opacity:0; stroke-width: 2; stroke: #000000" x1="243.451" y1="630.486" x2="337.35" y2="606.6"/>
  <line style="fill: none; fill-opacity:0; stroke-width: 2; stroke: #000000" x1="243.433" y1="620.753" x2="338.25" y2="561.1"/>
  <g>
    <rect style="fill: #fff4ba" x="350.45" y="243.1" width="195.6" height="36" rx="20" ry="20"/>
    <rect style="fill: none; fill-opacity:0; stroke-width: 2; stroke: #000000" x="350.45" y="243.1" width="195.6" height="36" rx="20" ry="20"/>
    <text style="fill: #000000;text-anchor:middle;font-size:12.8;font-family:sanserif;font-style:normal;font-weight:normal" x="448.25" y="265.9">
      <tspan x="448.25" y="265.9">sincronizar módulo fotovoltáico</tspan>
    </text>
  </g>
  <g>
    <ellipse style="fill: #ffffff" cx="842.276" cy="612.6" rx="6" ry="6"/>
    <ellipse style="fill: none; fill-opacity:0; stroke-width: 2; stroke: #000000" cx="842.276" cy="612.6" rx="6" ry="6"/>
    <line style="fill: none; fill-opacity:0; stroke-width: 2; stroke: #000000" x1="818.276" y1="624.6" x2="866.276" y2="624.6"/>
    <line style="fill: none; fill-opacity:0; stroke-width: 2; stroke: #000000" x1="842.276" y1="618.6" x2="842.276" y2="648.6"/>
    <line style="fill: none; fill-opacity:0; stroke-width: 2; stroke: #000000" x1="842.276" y1="648.6" x2="818.276" y2="674.6"/>
    <line style="fill: none; fill-opacity:0; stroke-width: 2; stroke: #000000" x1="842.276" y1="648.6" x2="866.276" y2="674.6"/>
    <text style="fill: #000000;text-anchor:middle;font-size:12.8;font-family:sanserif;font-style:normal;font-weight:normal" x="842.276" y="699.4">
      <tspan x="842.276" y="699.4">Cliente</tspan>
      <tspan x="842.276" y="715.4">Consumidor</tspan>
    </text>
  </g>
  <line style="fill: none; fill-opacity:0; stroke-width: 2; stroke: #000000" x1="808.785" y1="661.257" x2="743.05" y2="686.1"/>
  <g>
    <rect style="fill: #ffffff" x="491.45" y="423.1" width="106.35" height="36" rx="20" ry="20"/>
    <rect style="fill: none; fill-opacity:0; stroke-width: 2; stroke: #000000" x="491.45" y="423.1" width="106.35" height="36" rx="20" ry="20"/>
    <text style="fill: #000000;text-anchor:middle;font-size:12.8;font-family:sanserif;font-style:normal;font-weight:normal" x="544.625" y="445.9">
      <tspan x="544.625" y="445.9">negociar precio</tspan>
    </text>
  </g>
  <line style="fill: none; fill-opacity:0; stroke-width: 2; stroke: #000000" x1="792.391" y1="535.583" x2="749.218" y2="553.6"/>
  <g>
    <rect style="fill: #ffffff" x="621.45" y="466.1" width="125.1" height="36" rx="20" ry="20"/>
    <rect style="fill: none; fill-opacity:0; stroke-width: 2; stroke: #000000" x="621.45" y="466.1" width="125.1" height="36" rx="20" ry="20"/>
    <text style="fill: #000000;text-anchor:middle;font-size:12.8;font-family:sanserif;font-style:normal;font-weight:normal" x="684" y="488.9">
      <tspan x="684" y="488.9">reportar incidencia</tspan>
    </text>
  </g>
  <line style="fill: none; fill-opacity:0; stroke-width: 2; stroke: #000000" x1="796.355" y1="428.294" x2="746.55" y2="484.1"/>
  <g>
    <ellipse style="fill: #ffffff" cx="647.768" cy="131.1" rx="6" ry="6"/>
    <ellipse style="fill: none; fill-opacity:0; stroke-width: 2; stroke: #000000" cx="647.768" cy="131.1" rx="6" ry="6"/>
    <line style="fill: none; fill-opacity:0; stroke-width: 2; stroke: #000000" x1="623.768" y1="143.1" x2="671.768" y2="143.1"/>
    <line style="fill: none; fill-opacity:0; stroke-width: 2; stroke: #000000" x1="647.768" y1="137.1" x2="647.768" y2="167.1"/>
    <line style="fill: none; fill-opacity:0; stroke-width: 2; stroke: #000000" x1="647.768" y1="167.1" x2="623.768" y2="193.1"/>
    <line style="fill: none; fill-opacity:0; stroke-width: 2; stroke: #000000" x1="647.768" y1="167.1" x2="671.768" y2="193.1"/>
    <text style="fill: #000000;text-anchor:middle;font-size:12.8;font-family:sanserif;font-style:normal;font-weight:normal" x="647.768" y="217.9">
      <tspan x="647.768" y="217.9">Hardware Almacenamiento</tspan>
    </text>
  </g>
  <g>
    <ellipse style="fill: #ffffff" cx="448.768" cy="133.1" rx="6" ry="6"/>
    <ellipse style="fill: none; fill-opacity:0; stroke-width: 2; stroke: #000000" cx="448.768" cy="133.1" rx="6" ry="6"/>
    <line style="fill: none; fill-opacity:0; stroke-width: 2; stroke: #000000" x1="424.768" y1="145.1" x2="472.768" y2="145.1"/>
    <line style="fill: none; fill-opacity:0; stroke-width: 2; stroke: #000000" x1="448.768" y1="139.1" x2="448.768" y2="169.1"/>
    <line style="fill: none; fill-opacity:0; stroke-width: 2; stroke: #000000" x1="448.768" y1="169.1" x2="424.768" y2="195.1"/>
    <line style="fill: none; fill-opacity:0; stroke-width: 2; stroke: #000000" x1="448.768" y1="169.1" x2="472.768" y2="195.1"/>
    <text style="fill: #000000;text-anchor:middle;font-size:12.8;font-family:sanserif;font-style:normal;font-weight:normal" x="448.768" y="219.9">
      <tspan x="448.768" y="219.9">Hardware Módulo Fotovoltáico</tspan>
    </text>
  </g>
  <g>
    <rect style="fill: #ffffff" x="577.768" y="243.1" width="141.95" height="36" rx="20" ry="20"/>
    <rect style="fill: none; fill-opacity:0; stroke-width: 2; stroke: #000000" x="577.768" y="243.1" width="141.95" height="36" rx="20" ry="20"/>
    <text style="fill: #000000;text-anchor:middle;font-size:12.8;font-family:sanserif;font-style:normal;font-weight:normal" x="648.743" y="265.9">
      <tspan x="648.743" y="265.9">indicar estado bateria</tspan>
    </text>
  </g>
  <line style="fill: none; fill-opacity:0; stroke-width: 2; stroke: #000000" x1="648.474" y1="222.105" x2="648.743" y2="243.1"/>
  <line style="fill: none; fill-opacity:0; stroke-width: 2; stroke: #000000" x1="448.383" y1="224.103" x2="448.25" y2="243.1"/>
  <g>
    <rect style="fill: #fff4ba" x="611.668" y="535.6" width="137.55" height="36" rx="20" ry="20"/>
    <rect style="fill: none; fill-opacity:0; stroke-width: 2; stroke: #000000" x="611.668" y="535.6" width="137.55" height="36" rx="20" ry="20"/>
    <text style="fill: #000000;text-anchor:middle;font-size:12.8;font-family:sanserif;font-style:normal;font-weight:normal" x="680.443" y="558.4">
      <tspan x="680.443" y="558.4">comprar lote energía</tspan>
    </text>
  </g>
  <g>
    <line style="fill: none; fill-opacity:0; stroke-width: 2; stroke-dasharray: 14; stroke: #000000" x1="611.668" y1="553.6" x2="547.214" y2="462.747"/>
    <polyline style="fill: none; fill-opacity:0; stroke-width: 2; stroke: #000000" points="555.784,466.187 545.92,460.924 547.628,471.973 "/>
  </g>
  <text style="fill: #000000;text-anchor:start;font-size:12.8;font-family:sanserif;font-style:normal;font-weight:normal" x="528.668" y="558.4">
    <tspan x="528.668" y="558.4">&lt;&lt;include&gt;&gt;</tspan>
  </text>
  <g>
    <line style="fill: none; fill-opacity:0; stroke-width: 2; stroke-dasharray: 14; stroke: #000000" x1="617.05" y1="324.1" x2="547.266" y2="419.491"/>
    <polyline style="fill: none; fill-opacity:0; stroke-width: 2; stroke: #000000" points="547.815,410.272 545.946,421.295 555.886,416.177 "/>
  </g>
  <text style="fill: #000000;text-anchor:start;font-size:12.8;font-family:sanserif;font-style:normal;font-weight:normal" x="532.668" y="328.4">
    <tspan x="532.668" y="328.4">&lt;&lt;include&gt;&gt;</tspan>
  </text>
  <g>
    <rect style="fill: #ffffff" x="339.768" y="678.1" width="180.05" height="36" rx="20" ry="20"/>
    <rect style="fill: none; fill-opacity:0; stroke-width: 2; stroke: #000000" x="339.768" y="678.1" width="180.05" height="36" rx="20" ry="20"/>
    <text style="fill: #000000;text-anchor:middle;font-size:12.8;font-family:sanserif;font-style:normal;font-weight:normal" x="429.793" y="700.9">
      <tspan x="429.793" y="700.9">monitorizar almacenamiento</tspan>
    </text>
  </g>
  <line style="fill: none; fill-opacity:0; stroke-width: 2; stroke: #000000" x1="243.446" y1="649.639" x2="339.768" y2="696.1"/>
</svg>
