<?xml version="1.0" encoding="UTF-8" standalone="no"?>
<!DOCTYPE svg PUBLIC "-//W3C//DTD SVG 1.0//EN" "http://www.w3.org/TR/2001/PR-SVG-20010719/DTD/svg10.dtd">
<svg width="28cm" height="7cm" viewBox="18 2 559 136" xmlns="http://www.w3.org/2000/svg" xmlns:xlink="http://www.w3.org/1999/xlink">
  <g>
    <polygon style="fill: #ffffff" points="90.8,41.1 110.8,29.1 130.8,41.1 110.8,53.1 "/>
    <polygon style="fill: none; fill-opacity:0; stroke-width: 2; stroke: #000000" points="90.8,41.1 110.8,29.1 130.8,41.1 110.8,53.1 "/>
    <polygon style="fill: none; fill-opacity:0; stroke-width: 2; stroke: #000000" points="98.8,41.1 110.8,33.9 122.8,41.1 110.8,48.3 "/>
    <text style="fill: #000000;text-anchor:end;font-size:12.8;font-family:monospace;font-style:normal;font-weight:normal" x="84.8" y="35.1"></text>
    <text style="fill: #000000;text-anchor:start;font-size:12.8;font-family:monospace;font-style:normal;font-weight:normal" x="136.8" y="35.1"></text>
    <text style="fill: #000000;text-anchor:middle;font-size:12.8;font-family:monospace;font-style:normal;font-weight:normal" x="110.8" y="45.1"></text>
  </g>
  <g>
    <rect style="fill: #cfe4eb" x="160.8" y="23.1" width="74.2" height="36"/>
    <rect style="fill: none; fill-opacity:0; stroke-width: 2; stroke: #000000" x="160.8" y="23.1" width="74.2" height="36"/>
    <rect style="fill: none; fill-opacity:0; stroke-width: 2; stroke: #000000" x="165.8" y="28.1" width="64.2" height="26"/>
    <text style="fill: #000000;text-anchor:middle;font-size:12.8;font-family:monospace;font-style:normal;font-weight:normal" x="197.9" y="45.1">oferta</text>
  </g>
  <g>
    <ellipse style="fill: #cfe4eb" cx="186.6" cy="119.889" rx="43.1" ry="18"/>
    <ellipse style="fill: none; fill-opacity:0; stroke-width: 2; stroke: #000000" cx="186.6" cy="119.889" rx="43.1" ry="18"/>
    <text style="fill: #000000;text-anchor:middle;font-size:12.8;font-family:monospace;font-style:normal;font-weight:normal" x="186.6" y="123.889">precio</text>
  </g>
  <g>
    <ellipse style="fill: #cfe4eb" cx="275.6" cy="119.889" rx="43.1" ry="18"/>
    <ellipse style="fill: none; fill-opacity:0; stroke-width: 2; stroke: #000000" cx="275.6" cy="119.889" rx="43.1" ry="18"/>
    <text style="fill: #000000;text-anchor:middle;font-size:12.8;font-family:monospace;font-style:normal;font-weight:normal" x="275.6" y="123.889">minimo</text>
  </g>
  <g>
    <ellipse style="fill: #cfe4eb" cx="378.45" cy="119.889" rx="46.95" ry="18"/>
    <ellipse style="fill: none; fill-opacity:0; stroke-width: 2; stroke: #000000" cx="378.45" cy="119.889" rx="46.95" ry="18"/>
    <text style="fill: #000000;text-anchor:middle;font-size:12.8;font-family:monospace;font-style:normal;font-weight:normal" x="378.45" y="123.889">paquete</text>
  </g>
  <g>
    <ellipse style="fill: #cfe4eb" cx="496.3" cy="119.889" rx="50.8" ry="18"/>
    <ellipse style="fill: none; fill-opacity:0; stroke-width: 2; stroke: #000000" cx="496.3" cy="119.889" rx="50.8" ry="18"/>
    <text style="fill: #000000;text-anchor:middle;font-size:12.8;font-family:monospace;font-style:normal;font-weight:normal" x="496.3" y="123.889">tardanza</text>
  </g>
  <polyline style="fill: none; fill-opacity:0; stroke-width: 2; stroke: #000000" points="197.9,59.1 197.9,80.4945 186.6,80.4945 186.6,101.889 "/>
  <polyline style="fill: none; fill-opacity:0; stroke-width: 2; stroke: #000000" points="197.9,59.1 197.9,80.4945 275.6,80.4945 275.6,101.889 "/>
  <polyline style="fill: none; fill-opacity:0; stroke-width: 2; stroke: #000000" points="197.9,60.1093 197.9,80.9991 378.45,80.9991 378.45,101.889 "/>
  <polyline style="fill: none; fill-opacity:0; stroke-width: 2; stroke: #000000" points="197.9,60.1093 197.9,80.9991 496.3,80.9991 496.3,101.889 "/>
  <g>
    <ellipse style="fill: #cfe4eb" cx="110" cy="119.889" rx="27.7" ry="18"/>
    <ellipse style="fill: none; fill-opacity:0; stroke-width: 2; stroke: #000000" cx="110" cy="119.889" rx="27.7" ry="18"/>
    <text style="fill: #000000;text-anchor:middle;font-size:12.8;font-family:monospace;font-style:normal;font-weight:normal" x="110" y="123.889">id</text>
    <line style="fill: none; fill-opacity:0; stroke-width: 2; stroke-dasharray: 6; stroke: #000000" x1="102.3" y1="127.889" x2="117.7" y2="127.889"/>
  </g>
  <polyline style="fill: none; fill-opacity:0; stroke-width: 2; stroke: #000000" points="197.9,59.1 197.9,80.4945 110,80.4945 110,101.889 "/>
  <g>
    <rect style="fill: #e7e6ff" x="373.9" y="23.1" width="74.2" height="36"/>
    <rect style="fill: none; fill-opacity:0; stroke-width: 2; stroke: #000000" x="373.9" y="23.1" width="74.2" height="36"/>
    <text style="fill: #000000;text-anchor:middle;font-size:12.8;font-family:monospace;font-style:normal;font-weight:normal" x="411" y="45.1">pedido</text>
  </g>
  <g>
    <ellipse style="fill: #e7e6ff" cx="527.2" cy="66.474" rx="27.7" ry="18"/>
    <ellipse style="fill: none; fill-opacity:0; stroke-width: 2; stroke: #000000" cx="527.2" cy="66.474" rx="27.7" ry="18"/>
    <text style="fill: #000000;text-anchor:middle;font-size:12.8;font-family:monospace;font-style:normal;font-weight:normal" x="527.2" y="70.474">id</text>
    <line style="fill: none; fill-opacity:0; stroke-width: 2; stroke: #000000" x1="519.5" y1="74.474" x2="534.9" y2="74.474"/>
  </g>
  <g>
    <polygon style="fill: #ffffff" points="274,41.1 294,29.1 314,41.1 294,53.1 "/>
    <polygon style="fill: none; fill-opacity:0; stroke-width: 2; stroke: #000000" points="274,41.1 294,29.1 314,41.1 294,53.1 "/>
    <text style="fill: #000000;text-anchor:end;font-size:12.8;font-family:monospace;font-style:normal;font-weight:normal" x="268" y="35.1">N</text>
    <text style="fill: #000000;text-anchor:start;font-size:12.8;font-family:monospace;font-style:normal;font-weight:normal" x="320" y="35.1">1</text>
    <text style="fill: #000000;text-anchor:middle;font-size:12.8;font-family:monospace;font-style:normal;font-weight:normal" x="294" y="45.1"></text>
  </g>
  <line style="fill: none; fill-opacity:0; stroke-width: 2; stroke: #000000" x1="449.107" y1="49.4212" x2="500.873" y2="60.7252"/>
  <g>
    <ellipse style="fill: #e7e6ff" cx="524.7" cy="22" rx="50.8" ry="18"/>
    <ellipse style="fill: none; fill-opacity:0; stroke-width: 2; stroke: #000000" cx="524.7" cy="22" rx="50.8" ry="18"/>
    <text style="fill: #000000;text-anchor:middle;font-size:12.8;font-family:monospace;font-style:normal;font-weight:normal" x="524.7" y="26">unidades</text>
  </g>
  <line style="fill: none; fill-opacity:0; stroke-width: 2; stroke: #000000" x1="449.099" y1="34.6999" x2="477.808" y2="29.8771"/>
  <line style="fill: none; fill-opacity:0; stroke-width: 2; stroke: #000000" x1="235.996" y1="41.1" x2="274" y2="41.1"/>
  <line style="fill: none; fill-opacity:0; stroke-width: 2; stroke: #000000" x1="314" y1="41.1" x2="372.908" y2="41.1"/>
  <line style="fill: none; fill-opacity:0; stroke-width: 2; stroke: #000000" x1="130.8" y1="41.1" x2="159.812" y2="41.1"/>
  <line style="fill: none; fill-opacity:0; stroke-width: 2; stroke: #000000" x1="110.8" y1="29.1" x2="60" y2="16"/>
  <line style="fill: none; fill-opacity:0; stroke-width: 2; stroke: #000000" x1="110.8" y1="53.1" x2="68" y2="67"/>
  <text style="fill: #000000;text-anchor:start;font-size:12.7998;font-family:sanserif;font-style:normal;font-weight:normal" x="18" y="37">
    <tspan x="18" y="37">productos</tspan>
  </text>
  <text style="fill: #000000;text-anchor:start;font-size:12.7998;font-family:sanserif;font-style:normal;font-weight:normal" x="18" y="83">
    <tspan x="18" y="83">proveedores</tspan>
  </text>
</svg>
